<svg id="Layer_1" data-name="Layer 1" xmlns="http://www.w3.org/2000/svg" viewBox="0 0 1119.61 699"><defs><style>.cls-1{fill:#f2f2f2;}.cls-2{fill:#26c00d;}.cls-3{fill:#79b76e;}.cls-4{fill:#a8a8a8;}.cls-5,.cls-6{isolation:isolate;}.cls-5{opacity:0.2;}.cls-6{opacity:0.1;}.cls-7,.cls-8{fill:none;stroke-miterlimit:10;stroke-width:2px;}.cls-7{stroke:#000;}.cls-8{stroke:red;}.cls-9{fill:#00a8e8;}.cls-10{fill:#fff;}.cls-11{fill:#3f3d56;}</style></defs><circle class="cls-1" cx="292.61" cy="213" r="213"/><path class="cls-2" d="M0,51.14c0,77.5,48.62,140.21,108.7,140.21"/><path class="cls-3" d="M108.7,191.35C108.7,113,163,49.57,230,49.57"/><path class="cls-3" d="M39.38,58.17c0,73.61,31,133.18,69.32,133.18"/><path class="cls-2" d="M108.7,191.35c0-100.14,62.71-181.17,140.21-181.17"/><path class="cls-4" d="M85.83,192.34s15.42-.48,20.06-3.78,23.72-7.26,24.87-2,23.17,26.39,5.76,26.53-40.44-2.71-45.07-5.53S85.83,192.34,85.83,192.34Z"/><path class="cls-5" d="M136.83,211.28c-17.4.15-40.44-2.71-45.07-5.53-3.53-2.15-4.94-9.87-5.41-13.43l-.52,0s1,12.43,5.62,15.26,27.67,5.67,45.07,5.53c5,0,6.76-1.83,6.67-4.47C142.49,210.26,140.57,211.25,136.83,211.28Z"/><ellipse cx="198.61" cy="424.5" rx="187" ry="25.44"/><ellipse class="cls-6" cx="198.61" cy="424.5" rx="157" ry="21.36"/><ellipse cx="836.61" cy="660.5" rx="283" ry="38.5"/><ellipse cx="310.61" cy="645.5" rx="170" ry="23.13"/><path class="cls-7" d="M462.61,626c90,23,263-30,282-90"/><path class="cls-7" d="M309.61,259s130-36,138,80-107,149-17,172"/><path class="cls-8" d="M184,537.28s39.07-10.82,41.48,24.05-32.16,44.78-5.11,51.69"/><path class="cls-9" d="M778.7,563.24l-7.87,50.3s-38.78,20.6-11.52,21.2,155.74,0,155.74,0,24.84,0-14.55-21.81l-7.87-52.72Z"/><path class="cls-2" d="M753.83,634.2c6.19-5.51,17-11.25,17-11.25l7.87-50.3,113.93.11,7.87,49.58c9.19,5.09,14.88,9,18.21,12,5.06-1.16,10.58-5.45-18.21-21.39l-7.87-52.72-113.93,3-7.87,50.3S738.24,630.85,753.83,634.2Z"/><rect class="cls-9" x="578.43" y="212.69" width="513.25" height="357.52" rx="18.05"/><rect class="cls-10" x="595.7" y="231.78" width="478.71" height="267.84"/><circle cx="835.06" cy="223.29" r="3.03"/><path class="cls-2" d="M1091.69,520.82v31.34a18,18,0,0,1-18,18.05H596.48a18,18,0,0,1-18.05-18h0V520.82Z"/><polygon class="cls-9" points="968.98 667.47 968.98 673.53 642.97 673.53 642.97 668.68 643.42 667.47 651.45 645.65 962.31 645.65 968.98 667.47"/><path class="cls-9" d="M1094.44,661.53c-.6,2.54-2.84,5.22-7.9,7.75-18.18,9.09-55.15-2.42-55.15-2.42s-28.48-4.85-28.48-17.57a22.57,22.57,0,0,1,2.5-1.49c7.64-4,33-14,77.92.42a18.79,18.79,0,0,1,8.54,5.6C1093.69,656,1095.12,658.66,1094.44,661.53Z"/><path class="cls-2" d="M1094.44,661.53c-22.25,8.53-42.09,9.17-62.44-5-10.27-7.13-19.59-8.89-26.59-8.76,7.64-4,33-14,77.92.42a18.79,18.79,0,0,1,8.54,5.6C1093.69,656,1095.12,658.66,1094.44,661.53Z"/><ellipse class="cls-1" cx="1066.54" cy="654.13" rx="7.88" ry="2.42"/><circle cx="835.06" cy="545.67" r="11.51"/><polygon class="cls-2" points="968.98 667.47 968.98 673.53 642.97 673.53 642.97 668.68 643.42 667.47 968.98 667.47"/><rect x="108.61" y="159" width="208" height="242"/><rect class="cls-9" x="87.61" y="135" width="250" height="86"/><rect class="cls-9" x="87.61" y="237" width="250" height="86"/><rect class="cls-9" x="87.61" y="339" width="250" height="86"/><rect x="271.61" y="150" width="16" height="16"/><rect x="294.61" y="150" width="16" height="16"/><rect x="317.61" y="150" width="16" height="16"/><rect x="271.61" y="251" width="16" height="16"/><rect x="294.61" y="251" width="16" height="16"/><rect x="317.61" y="251" width="16" height="16"/><rect x="271.61" y="352" width="16" height="16"/><rect x="294.61" y="352" width="16" height="16"/><rect x="317.61" y="352" width="16" height="16"/><circle class="cls-9" cx="316.61" cy="538" r="79"/><rect class="cls-9" x="280.61" y="600" width="24" height="43"/><rect class="cls-9" x="328.61" y="600" width="24" height="43"/><ellipse class="cls-9" cx="300.61" cy="643.5" rx="20" ry="7.5"/><ellipse class="cls-9" cx="348.61" cy="642.5" rx="20" ry="7.5"/><circle class="cls-10" cx="318.61" cy="518" r="27"/><circle class="cls-11" cx="318.61" cy="518" r="9"/><path class="cls-2" d="M240,464.53c-6.38-28.57,14-57.43,45.54-64.47s62.27,10.41,68.64,39-14.51,39.1-46.05,46.14S246.36,493.1,240,464.53Z"/><ellipse class="cls-9" cx="385.82" cy="510.84" rx="39.5" ry="12.4" transform="translate(-169.88 193.02) rotate(-23.17)"/><ellipse class="cls-9" cx="237.82" cy="563.84" rx="39.5" ry="12.4" transform="translate(-202.68 139.06) rotate(-23.17)"/><path class="cls-10" d="M362.61,561c0,7.73-19.91,23-42,23s-43-14.27-43-22,20.91-6,43-6S362.61,553.27,362.61,561Z"/><path d="M629,346.06a15.42,15.42,0,0,1-15.54-15.38,15.23,15.23,0,0,1,15.18-15.19,15,15,0,0,1,14,9h-6.12a8.84,8.84,0,0,0-7.75-3.71,9.69,9.69,0,0,0-9.79,10,10.05,10.05,0,0,0,9.91,10.07c2.84,0,4.92-1,7.31-3.48h6.44A14.58,14.58,0,0,1,629,346.06Z"/><path d="M656.36,346.06a11.59,11.59,0,1,1,11.79-11.43A11.68,11.68,0,0,1,656.36,346.06Zm0-18.3a6.72,6.72,0,1,0,6.43,6.71A6.57,6.57,0,0,0,656.36,327.76Z"/><path d="M685.5,345.54V334.71c0-5.91-1.6-6.95-4.24-6.95a4.47,4.47,0,0,0-3.92,2c-.67,1.08-.88,2.35-.88,5.31v10.43h-5.31V323.4h4.92v2.12a8.17,8.17,0,0,1,6.23-2.64c3.08,0,5.47,1.12,6.91,3.2,1.2,1.72,1.6,3.64,1.6,7.59v11.87Z"/><path d="M709.48,345.54V334.71c0-5.91-1.6-6.95-4.24-6.95a4.44,4.44,0,0,0-3.91,2c-.68,1.08-.88,2.35-.88,5.31v10.43h-5.32V323.4h4.92v2.12a8.17,8.17,0,0,1,6.23-2.64c3.08,0,5.47,1.12,6.91,3.2,1.2,1.72,1.6,3.64,1.6,7.59v11.87Z"/><path d="M741.05,336.83H723.91c.64,2.68,3,4.36,6.11,4.36a5.63,5.63,0,0,0,4.88-2.2h5.79c-1.48,4.55-6.07,7.07-10.55,7.07-6.75,0-12-5-12-11.51a11.59,11.59,0,0,1,11.67-11.67c6.6,0,11.43,5,11.43,11.91A8.61,8.61,0,0,1,741.05,336.83Zm-11.15-9.07a5.9,5.9,0,0,0-6.15,4.39H736C735.34,329.32,733.18,327.76,729.9,327.76Z"/><path d="M755.56,346.06a11.68,11.68,0,0,1-11.83-11.59,11.73,11.73,0,0,1,22.82-3.67h-6a5.38,5.38,0,0,0-5.16-3c-3.68,0-6.31,2.8-6.31,6.67a6.43,6.43,0,0,0,6.43,6.76,5.53,5.53,0,0,0,5-2.92h6A11.27,11.27,0,0,1,755.56,346.06Z"/><path d="M776.39,328.24v17.3h-5.32v-17.3h-2.6V323.4h2.6V316h5.32v7.39h3.19v4.84Z"/><path d="M799.57,328.24v17.3h-5.32v-17.3h-2.6V323.4h2.6V316h5.32v7.39h3.19v4.84Z"/><path d="M815.83,346.06a11.59,11.59,0,1,1,11.79-11.43A11.68,11.68,0,0,1,815.83,346.06Zm0-18.3a6.72,6.72,0,1,0,6.44,6.71A6.57,6.57,0,0,0,815.83,327.76Z"/><path d="M847.93,328.24v17.3h-5.32v-17.3H840V323.4h2.59V316h5.32v7.39h3.2v4.84Z"/><path d="M868.51,345.54V334.23c0-4.63-1.2-6.47-4.32-6.47s-4.67,1.68-4.67,6.55v11.23H854.2V316h5.32v8.91a7.88,7.88,0,0,1,5.63-2.08c5.32,0,8.68,2.92,8.68,10.19v12.51Z"/><path d="M900.12,336.83H883c.64,2.68,3,4.36,6.11,4.36A5.63,5.63,0,0,0,894,339h5.8c-1.48,4.55-6.08,7.07-10.56,7.07-6.75,0-12-5-12-11.51a11.58,11.58,0,0,1,11.67-11.67c6.59,0,11.42,5,11.42,11.91A8.12,8.12,0,0,1,900.12,336.83ZM889,327.76a5.91,5.91,0,0,0-6.16,4.39h12.27C894.41,329.32,892.25,327.76,889,327.76Z"/><path d="M915,345.54V323.4h5.31v22.14Zm0-25.33v-5.32h5.31v5.32Z"/><path d="M938.9,345.54V334.71c0-5.91-1.6-6.95-4.24-6.95a4.47,4.47,0,0,0-3.92,2c-.68,1.08-.88,2.35-.88,5.31v10.43h-5.31V323.4h4.91v2.12a8.21,8.21,0,0,1,6.24-2.64c3.08,0,5.47,1.12,6.91,3.2,1.2,1.72,1.6,3.64,1.6,7.59v11.87Z"/><path d="M954.64,328.24v17.3h-5.31v-17.3h-2.6V323.4h2.6V316h5.31v7.39h3.2v4.84Z"/><path d="M982.06,336.83H964.92c.63,2.68,3,4.36,6.11,4.36a5.63,5.63,0,0,0,4.88-2.2h5.79c-1.48,4.55-6.08,7.07-10.55,7.07-6.75,0-12-5-12-11.51a11.59,11.59,0,0,1,11.67-11.67c6.59,0,11.43,5,11.43,11.91A8.61,8.61,0,0,1,982.06,336.83Zm-11.15-9.07c-3.16,0-5.32,1.56-6.15,4.39H977C976.34,329.32,974.19,327.76,970.91,327.76Z"/><path d="M991,333.23v12.31H985.7V323.4h4.88v2.16c1.39-2,2.51-2.68,4.79-2.68h.4V328C992.57,328.08,991,329.8,991,333.23Z"/><path d="M1012.84,345.54V334.71c0-5.91-1.6-6.95-4.24-6.95a4.47,4.47,0,0,0-3.92,2c-.68,1.08-.88,2.35-.88,5.31v10.43h-5.31V323.4h4.92v2.12a8.17,8.17,0,0,1,6.23-2.64c3.08,0,5.47,1.12,6.91,3.2,1.2,1.72,1.6,3.64,1.6,7.59v11.87Z"/><path d="M1044.41,336.83h-17.14c.64,2.68,3,4.36,6.11,4.36a5.63,5.63,0,0,0,4.88-2.2h5.79c-1.48,4.55-6.07,7.07-10.55,7.07-6.75,0-12-5-12-11.51a11.59,11.59,0,0,1,11.67-11.67c6.59,0,11.43,5,11.43,11.91A8.61,8.61,0,0,1,1044.41,336.83Zm-11.15-9.07a5.89,5.89,0,0,0-6.15,4.39h12.27C1038.7,329.32,1036.54,327.76,1033.26,327.76Z"/><path d="M1054.17,328.24v17.3h-5.32v-17.3h-2.6V323.4h2.6V316h5.32v7.39h3.19v4.84Z"/><path d="M755.55,367.55l-6.81,12.91v7.87H746v-7.87l-6.84-12.91h3.13l5.1,10.05,5.07-10.05Z"/><path d="M769.78,372.94a7.18,7.18,0,0,1,2.89,2.89,9.89,9.89,0,0,1,0,8.83,7.22,7.22,0,0,1-2.89,2.88,9.22,9.22,0,0,1-8.35,0,7.37,7.37,0,0,1-2.9-2.88,9.72,9.72,0,0,1,0-8.83,7.33,7.33,0,0,1,2.9-2.89,9.22,9.22,0,0,1,8.35,0Zm-6.84,2a4.81,4.81,0,0,0-2,2,7.63,7.63,0,0,0,0,6.6,4.86,4.86,0,0,0,2,2,5.79,5.79,0,0,0,5.33,0,4.86,4.86,0,0,0,2-2,7.63,7.63,0,0,0,0-6.6,4.81,4.81,0,0,0-2-2,5.79,5.79,0,0,0-5.33,0Z"/><path d="M791.61,372.15v16.18h-2.69v-3.8a5.46,5.46,0,0,1-2.19,3,6.48,6.48,0,0,1-3.67,1.05,6,6,0,0,1-4.54-1.82,7.21,7.21,0,0,1-1.74-5.2v-9.43h2.68v9.16A5.19,5.19,0,0,0,780.7,385a4.37,4.37,0,0,0,3.36,1.32,4.63,4.63,0,0,0,3.54-1.43,6,6,0,0,0,1.32-4.18v-8.6Z"/><path d="M797.92,367.81a3.58,3.58,0,0,1-.76,2.49,2.82,2.82,0,0,1-2.22.84v-1.2a1.35,1.35,0,0,0,1.09-.4,1.92,1.92,0,0,0,.32-1.23v-.67h-1.47V365.1h2.71A11.93,11.93,0,0,1,797.92,367.81Z"/><path d="M806.17,372.81a6.91,6.91,0,0,1,3.66-.93v2.92H809a5.75,5.75,0,0,0-3.71,1.16,4.65,4.65,0,0,0-1.45,3.85v8.52h-2.68V372.15h2.68v3.27A6,6,0,0,1,806.17,372.81Z"/><path d="M827.25,380.81H814.31a5.68,5.68,0,0,0,1.57,4.16,5.19,5.19,0,0,0,3.64,1.39,5.25,5.25,0,0,0,3.26-1,4.09,4.09,0,0,0,1.61-2.64h2.86a7,7,0,0,1-1.31,3,6.85,6.85,0,0,1-2.64,2.06,8.76,8.76,0,0,1-3.66.74,8.44,8.44,0,0,1-4.13-1,7.15,7.15,0,0,1-2.81-2.88,10.07,10.07,0,0,1,0-8.83,7.12,7.12,0,0,1,2.81-2.89,8.33,8.33,0,0,1,4.13-1,8.13,8.13,0,0,1,4.11,1,6.93,6.93,0,0,1,2.69,2.68,7.58,7.58,0,0,1,.93,3.72A7.79,7.79,0,0,1,827.25,380.81Zm-3.19-4.3a4.28,4.28,0,0,0-1.85-1.8,5.71,5.71,0,0,0-2.57-.59,5.32,5.32,0,0,0-3.71,1.37,5.48,5.48,0,0,0-1.62,4h10.34A5.44,5.44,0,0,0,824.06,376.51Z"/><path d="M849.67,372.94a7.18,7.18,0,0,1,2.89,2.89,9.89,9.89,0,0,1,0,8.83,7.22,7.22,0,0,1-2.89,2.88,9.22,9.22,0,0,1-8.35,0,7.37,7.37,0,0,1-2.9-2.88,9.72,9.72,0,0,1,0-8.83,7.33,7.33,0,0,1,2.9-2.89,9.22,9.22,0,0,1,8.35,0Zm-6.84,2a4.81,4.81,0,0,0-2,2,7.63,7.63,0,0,0,0,6.6,4.86,4.86,0,0,0,2,2,5.79,5.79,0,0,0,5.33,0,4.86,4.86,0,0,0,2-2,7.63,7.63,0,0,0,0-6.6,4.81,4.81,0,0,0-2-2,5.79,5.79,0,0,0-5.33,0Z"/><path d="M861.28,369.05a3.48,3.48,0,0,0-.84,2.65v.45h3.83v2.35h-3.83v13.83h-2.68V374.5h-2.33v-2.35h2.33v-.65q0-5.81,6.51-5.54v2.35A4.38,4.38,0,0,0,861.28,369.05Z"/><path d="M871.36,369.05a3.48,3.48,0,0,0-.84,2.65v.45h3.84v2.35h-3.84v13.83h-2.68V374.5h-2.33v-2.35h2.33v-.65q0-5.81,6.52-5.54v2.35A4.4,4.4,0,0,0,871.36,369.05Z"/><path d="M880,366.52v21.81h-2.68V366.52Z"/><path d="M884.29,366.21a1.87,1.87,0,0,1,1.33-.46,1.85,1.85,0,0,1,1.32.46,1.64,1.64,0,0,1,0,2.38,1.85,1.85,0,0,1-1.32.46,1.87,1.87,0,0,1-1.33-.46,1.67,1.67,0,0,1,0-2.38Zm2.65,5.94v16.18h-2.68V372.15Z"/><path d="M904.34,373.69a7.28,7.28,0,0,1,1.74,5.24v9.4h-2.69v-9.17a5.18,5.18,0,0,0-1.23-3.71,4.42,4.42,0,0,0-3.36-1.3,4.6,4.6,0,0,0-3.54,1.43,5.88,5.88,0,0,0-1.33,4.17v8.58h-2.68V372.15h2.68V376a5.52,5.52,0,0,1,2.2-3,6.33,6.33,0,0,1,3.64-1.06A6.07,6.07,0,0,1,904.34,373.69Z"/><path d="M925,380.81H912a5.69,5.69,0,0,0,1.58,4.16,5.15,5.15,0,0,0,3.64,1.39,5.27,5.27,0,0,0,3.26-1,4.08,4.08,0,0,0,1.6-2.64H925a6.74,6.74,0,0,1-1.31,3A6.85,6.85,0,0,1,921,387.8a8.75,8.75,0,0,1-3.65.74,8.42,8.42,0,0,1-4.13-1,7.11,7.11,0,0,1-2.82-2.88,10.15,10.15,0,0,1,0-8.83,7.08,7.08,0,0,1,2.82-2.89,8.31,8.31,0,0,1,4.13-1,8.13,8.13,0,0,1,4.11,1,6.9,6.9,0,0,1,2.68,2.68,7.58,7.58,0,0,1,.93,3.72A7.79,7.79,0,0,1,925,380.81Zm-3.18-4.3a4.25,4.25,0,0,0-1.86-1.8,5.67,5.67,0,0,0-2.56-.59,5.34,5.34,0,0,0-3.72,1.37,5.56,5.56,0,0,0-1.62,4h10.35A5.53,5.53,0,0,0,921.79,376.51Z"/><path d="M930.57,385.18v3.15h-3.24v-3.15Z"/><path d="M682.34,404.59a9.56,9.56,0,0,1,3.42,5.11h-2.83a7,7,0,0,0-2.56-3.28,7.43,7.43,0,0,0-4.34-1.23,6.66,6.66,0,0,0-6.17,3.82,9.48,9.48,0,0,0-.93,4.32,9.27,9.27,0,0,0,.93,4.27,6.88,6.88,0,0,0,2.53,2.82,6.81,6.81,0,0,0,3.64,1,7.43,7.43,0,0,0,4.34-1.23,7,7,0,0,0,2.56-3.28h2.83a9.56,9.56,0,0,1-3.42,5.11,10.1,10.1,0,0,1-6.28,1.87,9.83,9.83,0,0,1-5.16-1.34,9.2,9.2,0,0,1-3.49-3.74,11.61,11.61,0,0,1-1.25-5.47,11.74,11.74,0,0,1,1.25-5.51,9.19,9.19,0,0,1,3.49-3.76,9.83,9.83,0,0,1,5.16-1.34A10.1,10.1,0,0,1,682.34,404.59Z"/><path d="M702.45,409.07a7.26,7.26,0,0,1,1.74,5.23v9.41H701.5v-9.17a5.18,5.18,0,0,0-1.24-3.72,4.42,4.42,0,0,0-3.36-1.29,4.55,4.55,0,0,0-3.53,1.43,5.88,5.88,0,0,0-1.33,4.17v8.58h-2.68V401.89H692v9.46a5.48,5.48,0,0,1,2.2-3,6.33,6.33,0,0,1,3.64-1.06A6,6,0,0,1,702.45,409.07Z"/><path d="M723.08,416.19H710.14a5.66,5.66,0,0,0,1.58,4.16,5.14,5.14,0,0,0,3.64,1.38,5.27,5.27,0,0,0,3.26-1,4,4,0,0,0,1.6-2.63h2.86a6.78,6.78,0,0,1-4,5.07,8.75,8.75,0,0,1-3.65.73,8.31,8.31,0,0,1-4.13-1,7.09,7.09,0,0,1-2.82-2.87,10.15,10.15,0,0,1,0-8.83,7.08,7.08,0,0,1,2.82-2.89,8.31,8.31,0,0,1,4.13-1,8.13,8.13,0,0,1,4.11,1,6.9,6.9,0,0,1,2.68,2.68,7.55,7.55,0,0,1,.93,3.72A7.79,7.79,0,0,1,723.08,416.19Zm-3.18-4.3a4.25,4.25,0,0,0-1.86-1.8,5.57,5.57,0,0,0-2.56-.59,5.28,5.28,0,0,0-3.72,1.37,5.52,5.52,0,0,0-1.62,4h10.35A5.48,5.48,0,0,0,719.9,411.89Z"/><path d="M739,409a7,7,0,0,1,2.51,4.42h-2.83a4.18,4.18,0,0,0-1.61-2.73,5.67,5.67,0,0,0-5.84-.34,4.81,4.81,0,0,0-1.87,2,8.12,8.12,0,0,0,0,6.64,4.81,4.81,0,0,0,1.87,2,5.25,5.25,0,0,0,2.58.64,5.19,5.19,0,0,0,3.26-1,4.23,4.23,0,0,0,1.61-2.74h2.83a7,7,0,0,1-2.51,4.44,7.94,7.94,0,0,1-5.13,1.63,8.33,8.33,0,0,1-4.13-1,7.06,7.06,0,0,1-2.81-2.87,10.07,10.07,0,0,1,0-8.83,7.05,7.05,0,0,1,2.81-2.89,8.33,8.33,0,0,1,4.13-1A7.89,7.89,0,0,1,739,409Z"/><path d="M753.89,423.71l-6.19-7.28v7.28H745V401.89h2.69v12.68l6.1-7.05h3.27l-7.25,8.05,7.43,8.14Z"/><path d="M768,407.52l5.25,12.74,4.86-12.74h3l-9.61,23.85h-3l3.36-7.93L765,407.52Z"/><path d="M795.06,408.32a7.18,7.18,0,0,1,2.89,2.89,9.89,9.89,0,0,1,0,8.83,7.19,7.19,0,0,1-2.89,2.87,9.22,9.22,0,0,1-8.35,0,7.34,7.34,0,0,1-2.9-2.87,9.72,9.72,0,0,1,0-8.83,7.33,7.33,0,0,1,2.9-2.89,9.22,9.22,0,0,1,8.35,0Zm-6.84,2a4.93,4.93,0,0,0-2,2,6.74,6.74,0,0,0-.75,3.32,6.67,6.67,0,0,0,.75,3.29,4.93,4.93,0,0,0,2,2,5.87,5.87,0,0,0,5.33,0,4.93,4.93,0,0,0,2-2,6.67,6.67,0,0,0,.75-3.29,6.74,6.74,0,0,0-.75-3.32,4.93,4.93,0,0,0-2-2,5.79,5.79,0,0,0-5.33,0Z"/><path d="M816.89,407.52v16.19H814.2V419.9a5.45,5.45,0,0,1-2.19,3,6.55,6.55,0,0,1-3.67,1,6,6,0,0,1-4.54-1.81,7.21,7.21,0,0,1-1.74-5.2v-9.44h2.68v9.17a5.2,5.2,0,0,0,1.24,3.73,4.4,4.4,0,0,0,3.36,1.31,4.59,4.59,0,0,0,3.54-1.43,5.93,5.93,0,0,0,1.32-4.17v-8.61Z"/><path d="M826.2,408.19a6.91,6.91,0,0,1,3.66-.93v2.92H829a5.7,5.7,0,0,0-3.71,1.16,4.65,4.65,0,0,0-1.45,3.85v8.52h-2.68V407.52h2.68v3.27A5.89,5.89,0,0,1,826.2,408.19Z"/><path d="M852.08,409a7,7,0,0,1,2.51,4.42h-2.83a4.14,4.14,0,0,0-1.61-2.73,5.66,5.66,0,0,0-5.83-.34,4.75,4.75,0,0,0-1.87,2,8.12,8.12,0,0,0,0,6.64,4.75,4.75,0,0,0,1.87,2,5.66,5.66,0,0,0,5.83-.36,4.19,4.19,0,0,0,1.61-2.74h2.83a6.92,6.92,0,0,1-2.51,4.44,7.89,7.89,0,0,1-5.12,1.63,8.31,8.31,0,0,1-4.13-1A7.09,7.09,0,0,1,840,420a10.15,10.15,0,0,1,0-8.83,7.08,7.08,0,0,1,2.82-2.89,8.31,8.31,0,0,1,4.13-1A7.85,7.85,0,0,1,852.08,409Z"/><path d="M869.61,408.32a7.18,7.18,0,0,1,2.89,2.89,9.81,9.81,0,0,1,0,8.83,7.19,7.19,0,0,1-2.89,2.87,9.19,9.19,0,0,1-8.34,0,7.3,7.3,0,0,1-2.91-2.87,9.72,9.72,0,0,1,0-8.83,7.29,7.29,0,0,1,2.91-2.89,9.19,9.19,0,0,1,8.34,0Zm-6.84,2a5,5,0,0,0-2,2,7.57,7.57,0,0,0,0,6.61,5,5,0,0,0,2,2,5.89,5.89,0,0,0,5.34,0,5,5,0,0,0,2-2,6.67,6.67,0,0,0,.75-3.29,6.74,6.74,0,0,0-.75-3.32,5,5,0,0,0-2-2,5.81,5.81,0,0,0-5.34,0Z"/><path d="M890.14,409.07a7.26,7.26,0,0,1,1.74,5.23v9.41H889.2v-9.17a5.18,5.18,0,0,0-1.24-3.72,4.42,4.42,0,0,0-3.36-1.29,4.59,4.59,0,0,0-3.54,1.43,5.93,5.93,0,0,0-1.32,4.17v8.58h-2.69V407.52h2.69v3.83a5.51,5.51,0,0,1,2.19-3,6.35,6.35,0,0,1,3.64-1.06A6,6,0,0,1,890.14,409.07Z"/><path d="M909.1,409.07a7.26,7.26,0,0,1,1.74,5.23v9.41h-2.68v-9.17a5.22,5.22,0,0,0-1.24-3.72,4.45,4.45,0,0,0-3.36-1.29A4.56,4.56,0,0,0,900,411a5.88,5.88,0,0,0-1.33,4.17v8.58H896V407.52h2.68v3.83a5.53,5.53,0,0,1,2.2-3,6.33,6.33,0,0,1,3.64-1.06A6,6,0,0,1,909.1,409.07Z"/><path d="M929.74,416.19h-13a5.7,5.7,0,0,0,1.58,4.16,5.16,5.16,0,0,0,3.64,1.38,5.27,5.27,0,0,0,3.26-1,4.08,4.08,0,0,0,1.61-2.63h2.86a6.78,6.78,0,0,1-1.32,3,6.68,6.68,0,0,1-2.63,2.07,8.8,8.8,0,0,1-3.66.73,8.33,8.33,0,0,1-4.13-1,7,7,0,0,1-2.81-2.87,10.07,10.07,0,0,1,0-8.83,7,7,0,0,1,2.81-2.89,8.33,8.33,0,0,1,4.13-1,8.13,8.13,0,0,1,4.11,1,6.84,6.84,0,0,1,2.68,2.68,7.55,7.55,0,0,1,.93,3.72A8.82,8.82,0,0,1,929.74,416.19Zm-3.19-4.3a4.25,4.25,0,0,0-1.86-1.8,5.54,5.54,0,0,0-2.56-.59,5.27,5.27,0,0,0-3.71,1.37,5.49,5.49,0,0,0-1.63,4h10.35A5.48,5.48,0,0,0,926.55,411.89Z"/><path d="M945.65,409a7,7,0,0,1,2.51,4.42h-2.83a4.14,4.14,0,0,0-1.61-2.73,5.66,5.66,0,0,0-5.83-.34,4.83,4.83,0,0,0-1.88,2,8.22,8.22,0,0,0,0,6.64,4.83,4.83,0,0,0,1.88,2,5.66,5.66,0,0,0,5.83-.36,4.19,4.19,0,0,0,1.61-2.74h2.83a6.92,6.92,0,0,1-2.51,4.44,7.9,7.9,0,0,1-5.13,1.63,8.3,8.3,0,0,1-4.12-1,7.09,7.09,0,0,1-2.82-2.87,10.15,10.15,0,0,1,0-8.83,7.08,7.08,0,0,1,2.82-2.89,8.3,8.3,0,0,1,4.12-1A7.86,7.86,0,0,1,945.65,409Z"/><path d="M959.39,421.35v2.36h-2a5.17,5.17,0,0,1-3.7-1.18,5.32,5.32,0,0,1-1.23-3.95v-8.73h-2.41v-2.33h2.41v-4h2.72v4h4.18v2.33h-4.18v8.79a3,3,0,0,0,.57,2.13,2.74,2.74,0,0,0,2,.58Z"/><path d="M962.69,401.58a2.15,2.15,0,0,1,2.66,0,1.58,1.58,0,0,1,.5,1.2,1.54,1.54,0,0,1-.5,1.19,2.15,2.15,0,0,1-2.66,0,1.54,1.54,0,0,1-.5-1.19A1.58,1.58,0,0,1,962.69,401.58Zm2.66,5.94v16.19h-2.69V407.52Z"/><path d="M981.16,408.32a7.18,7.18,0,0,1,2.89,2.89,9.81,9.81,0,0,1,0,8.83,7.19,7.19,0,0,1-2.89,2.87,9.19,9.19,0,0,1-8.34,0,7.22,7.22,0,0,1-2.9-2.87,9.64,9.64,0,0,1,0-8.83,7.2,7.2,0,0,1,2.9-2.89,9.19,9.19,0,0,1,8.34,0Zm-6.84,2a5,5,0,0,0-2,2,6.74,6.74,0,0,0-.75,3.32,6.67,6.67,0,0,0,.75,3.29,5,5,0,0,0,2,2,5.89,5.89,0,0,0,5.34,0,5,5,0,0,0,2-2,7.57,7.57,0,0,0,0-6.61,5,5,0,0,0-2-2,5.81,5.81,0,0,0-5.34,0Z"/><path d="M1001.7,409.07a7.3,7.3,0,0,1,1.73,5.23v9.41h-2.68v-9.17a5.18,5.18,0,0,0-1.24-3.72,4.42,4.42,0,0,0-3.36-1.29,4.55,4.55,0,0,0-3.53,1.43,5.88,5.88,0,0,0-1.33,4.17v8.58h-2.68V407.52h2.68v3.83a5.48,5.48,0,0,1,2.2-3,6.33,6.33,0,0,1,3.64-1.06A6,6,0,0,1,1001.7,409.07Z"/></svg>